<mxfile host="65bd71144e">
    <diagram id="I1f3UuRYCAC5BOLGdF-e" name="Page-1">
        <mxGraphModel dx="986" dy="576" grid="1" gridSize="10" guides="1" tooltips="1" connect="1" arrows="1" fold="1" page="1" pageScale="1" pageWidth="850" pageHeight="1100" math="0" shadow="0">
            <root>
                <mxCell id="0"/>
                <mxCell id="1" parent="0"/>
                <mxCell id="4" value="" style="edgeStyle=none;html=1;" edge="1" parent="1" source="2" target="3">
                    <mxGeometry relative="1" as="geometry"/>
                </mxCell>
                <mxCell id="2" value="INICIO" style="ellipse;whiteSpace=wrap;html=1;fillColor=#331A00;" vertex="1" parent="1">
                    <mxGeometry x="365" y="20" width="120" height="80" as="geometry"/>
                </mxCell>
                <mxCell id="6" value="" style="edgeStyle=none;html=1;" edge="1" parent="1" source="3" target="5">
                    <mxGeometry relative="1" as="geometry"/>
                </mxCell>
                <mxCell id="3" value="a , b" style="shape=parallelogram;perimeter=parallelogramPerimeter;whiteSpace=wrap;html=1;fixedSize=1;fillColor=#666600;" vertex="1" parent="1">
                    <mxGeometry x="365" y="140" width="120" height="60" as="geometry"/>
                </mxCell>
                <mxCell id="5" value="a % b == 0" style="rhombus;whiteSpace=wrap;html=1;fillColor=#000066;" vertex="1" parent="1">
                    <mxGeometry x="385" y="240" width="80" height="80" as="geometry"/>
                </mxCell>
                <mxCell id="7" value="" style="endArrow=none;html=1;entryX=0;entryY=0.5;entryDx=0;entryDy=0;" edge="1" parent="1" target="5">
                    <mxGeometry width="50" height="50" relative="1" as="geometry">
                        <mxPoint x="280" y="280" as="sourcePoint"/>
                        <mxPoint x="450" y="270" as="targetPoint"/>
                    </mxGeometry>
                </mxCell>
                <mxCell id="8" value="" style="endArrow=none;html=1;exitX=1;exitY=0.5;exitDx=0;exitDy=0;" edge="1" parent="1" source="5">
                    <mxGeometry width="50" height="50" relative="1" as="geometry">
                        <mxPoint x="510" y="320" as="sourcePoint"/>
                        <mxPoint x="560" y="280" as="targetPoint"/>
                    </mxGeometry>
                </mxCell>
                <mxCell id="9" value="" style="endArrow=none;html=1;exitX=0.5;exitY=0;exitDx=0;exitDy=0;" edge="1" parent="1" source="11">
                    <mxGeometry width="50" height="50" relative="1" as="geometry">
                        <mxPoint x="560" y="360" as="sourcePoint"/>
                        <mxPoint x="560" y="280" as="targetPoint"/>
                    </mxGeometry>
                </mxCell>
                <mxCell id="10" value="" style="endArrow=none;html=1;exitX=0.5;exitY=0;exitDx=0;exitDy=0;" edge="1" parent="1" source="12">
                    <mxGeometry width="50" height="50" relative="1" as="geometry">
                        <mxPoint x="280" y="360" as="sourcePoint"/>
                        <mxPoint x="280" y="280" as="targetPoint"/>
                    </mxGeometry>
                </mxCell>
                <mxCell id="11" value="&quot;Los números son MULTIPLOS&quot;" style="shape=document;whiteSpace=wrap;html=1;boundedLbl=1;fillColor=#330033;" vertex="1" parent="1">
                    <mxGeometry x="500" y="350" width="120" height="80" as="geometry"/>
                </mxCell>
                <mxCell id="12" value="&quot;Los números NO son MULTIPLOS&quot;" style="shape=document;whiteSpace=wrap;html=1;boundedLbl=1;fillColor=#33001A;" vertex="1" parent="1">
                    <mxGeometry x="220" y="350" width="120" height="80" as="geometry"/>
                </mxCell>
                <mxCell id="15" value="" style="endArrow=none;html=1;entryX=0.51;entryY=0.875;entryDx=0;entryDy=0;entryPerimeter=0;" edge="1" parent="1" target="11">
                    <mxGeometry width="50" height="50" relative="1" as="geometry">
                        <mxPoint x="560" y="520" as="sourcePoint"/>
                        <mxPoint x="450" y="460" as="targetPoint"/>
                    </mxGeometry>
                </mxCell>
                <mxCell id="16" value="" style="endArrow=none;html=1;entryX=0.49;entryY=0.885;entryDx=0;entryDy=0;entryPerimeter=0;" edge="1" parent="1" target="12">
                    <mxGeometry width="50" height="50" relative="1" as="geometry">
                        <mxPoint x="279" y="520" as="sourcePoint"/>
                        <mxPoint x="450" y="460" as="targetPoint"/>
                    </mxGeometry>
                </mxCell>
                <mxCell id="17" value="" style="endArrow=none;html=1;" edge="1" parent="1">
                    <mxGeometry width="50" height="50" relative="1" as="geometry">
                        <mxPoint x="280" y="520" as="sourcePoint"/>
                        <mxPoint x="560" y="520" as="targetPoint"/>
                    </mxGeometry>
                </mxCell>
                <mxCell id="18" value="" style="endArrow=none;html=1;exitX=0.5;exitY=0;exitDx=0;exitDy=0;" edge="1" parent="1" source="19">
                    <mxGeometry width="50" height="50" relative="1" as="geometry">
                        <mxPoint x="420" y="600" as="sourcePoint"/>
                        <mxPoint x="420" y="520" as="targetPoint"/>
                    </mxGeometry>
                </mxCell>
                <mxCell id="19" value="FIN" style="ellipse;whiteSpace=wrap;html=1;fillColor=#006600;" vertex="1" parent="1">
                    <mxGeometry x="360" y="570" width="120" height="80" as="geometry"/>
                </mxCell>
            </root>
        </mxGraphModel>
    </diagram>
</mxfile>